<svg xmlns="http://www.w3.org/2000/svg" viewBox="0 0 250 180"><title>ARRIVE — recreated from supplied reference</title><g fill="none" stroke="#334155" stroke-width="4" stroke-linejoin="round"><path d="M61 124 120 17 165 88M61 124l44-1 15-37 15-40-15-29M84 85l36-39 14 43M84 85l12 28"/></g><g fill="#334155"><circle cx="120" cy="17" r="6"/><circle cx="120" cy="46" r="6"/><circle cx="84" cy="85" r="6"/><circle cx="96" cy="113" r="6"/><circle cx="61" cy="124" r="6"/><circle cx="105" cy="123" r="6"/><circle cx="149" cy="76" r="5"/><path d="M94 110c34 3 62-15 83-36l-9-10 35 4-14 31-7-12c-30 24-60 31-88 29zM149 106l15-8 14 29h-20z"/><text x="125" y="158" text-anchor="middle" font-family="Arial,sans-serif" font-size="29" letter-spacing="5">ARRIVE</text><text x="125" y="175" text-anchor="middle" font-family="Arial,sans-serif" font-size="9" letter-spacing="1.6">CHANGE INTELLIGENCE</text></g></svg>
